<?xml version="1.0" encoding="UTF-8"?>
<svg xmlns="http://www.w3.org/2000/svg" version="1.1" width="100" height="100" viewBox="0 0 100 100"><rect x="0" y="0" width="100" height="100" fill="#ffffff"/><g transform="scale(3.448)"><g transform="translate(0,0)"><path fill-rule="evenodd" d="M8 0L8 4L10 4L10 3L11 3L11 4L12 4L12 2L11 2L11 0ZM12 0L12 1L14 1L14 0ZM16 0L16 2L14 2L14 4L13 4L13 5L11 5L11 6L10 6L10 7L9 7L9 5L8 5L8 7L9 7L9 8L10 8L10 7L11 7L11 6L12 6L12 8L11 8L11 9L7 9L7 8L4 8L4 9L5 9L5 10L4 10L4 12L3 12L3 9L2 9L2 8L0 8L0 9L1 9L1 10L2 10L2 11L0 11L0 12L1 12L1 13L2 13L2 14L3 14L3 15L1 15L1 14L0 14L0 18L1 18L1 17L2 17L2 20L0 20L0 21L3 21L3 20L4 20L4 21L5 21L5 20L4 20L4 19L5 19L5 16L4 16L4 12L5 12L5 13L7 13L7 14L5 14L5 15L7 15L7 16L6 16L6 17L7 17L7 18L6 18L6 19L7 19L7 20L6 20L6 21L7 21L7 20L9 20L9 21L8 21L8 22L9 22L9 23L8 23L8 25L9 25L9 23L10 23L10 24L11 24L11 25L10 25L10 26L9 26L9 27L8 27L8 29L9 29L9 27L10 27L10 29L11 29L11 28L12 28L12 29L14 29L14 27L16 27L16 29L19 29L19 27L20 27L20 29L21 29L21 27L22 27L22 29L23 29L23 27L22 27L22 25L23 25L23 26L24 26L24 25L25 25L25 26L26 26L26 27L27 27L27 29L28 29L28 28L29 28L29 24L28 24L28 23L29 23L29 13L28 13L28 11L29 11L29 8L25 8L25 9L24 9L24 8L23 8L23 9L21 9L21 10L20 10L20 8L21 8L21 6L20 6L20 5L19 5L19 3L21 3L21 1L20 1L20 0ZM18 1L18 3L19 3L19 1ZM9 2L9 3L10 3L10 2ZM16 2L16 3L17 3L17 2ZM15 4L15 8L14 8L14 6L13 6L13 8L12 8L12 9L11 9L11 10L8 10L8 11L9 11L9 12L7 12L7 11L6 11L6 12L7 12L7 13L8 13L8 16L7 16L7 17L9 17L9 18L12 18L12 17L13 17L13 16L14 16L14 18L13 18L13 19L12 19L12 20L10 20L10 19L9 19L9 20L10 20L10 21L11 21L11 24L12 24L12 25L11 25L11 26L10 26L10 27L11 27L11 26L12 26L12 25L13 25L13 26L14 26L14 25L13 25L13 24L15 24L15 26L16 26L16 27L17 27L17 26L18 26L18 27L19 27L19 25L17 25L17 26L16 26L16 24L17 24L17 23L18 23L18 24L19 24L19 23L20 23L20 22L19 22L19 21L20 21L20 20L21 20L21 19L23 19L23 20L25 20L25 22L26 22L26 24L27 24L27 25L26 25L26 26L28 26L28 24L27 24L27 22L26 22L26 21L28 21L28 18L25 18L25 19L23 19L23 17L24 17L24 16L25 16L25 17L26 17L26 16L27 16L27 15L28 15L28 14L23 14L23 13L24 13L24 11L25 11L25 13L27 13L27 11L28 11L28 10L27 10L27 11L26 11L26 9L25 9L25 10L24 10L24 11L22 11L22 10L21 10L21 11L20 11L20 10L19 10L19 9L17 9L17 7L18 7L18 6L19 6L19 8L20 8L20 6L19 6L19 5L18 5L18 4L17 4L17 7L16 7L16 4ZM13 8L13 9L12 9L12 10L11 10L11 11L10 11L10 13L9 13L9 14L10 14L10 15L11 15L11 14L10 14L10 13L11 13L11 12L12 12L12 13L13 13L13 14L14 14L14 15L17 15L17 17L16 17L16 18L15 18L15 19L16 19L16 18L20 18L20 17L22 17L22 14L20 14L20 13L22 13L22 12L20 12L20 11L17 11L17 9L14 9L14 8ZM6 9L6 10L7 10L7 9ZM13 10L13 11L12 11L12 12L13 12L13 13L14 13L14 14L16 14L16 13L17 13L17 14L19 14L19 15L18 15L18 17L19 17L19 16L20 16L20 14L19 14L19 12L16 12L16 13L15 13L15 11L14 11L14 10ZM2 12L2 13L3 13L3 12ZM12 15L12 16L9 16L9 17L12 17L12 16L13 16L13 15ZM25 15L25 16L26 16L26 15ZM2 16L2 17L4 17L4 16ZM3 18L3 19L4 19L4 18ZM7 18L7 19L8 19L8 18ZM17 19L17 20L18 20L18 19ZM25 19L25 20L26 20L26 19ZM12 20L12 21L14 21L14 23L17 23L17 22L18 22L18 21L16 21L16 22L15 22L15 21L14 21L14 20ZM21 21L21 24L24 24L24 21ZM22 22L22 23L23 23L23 22ZM12 23L12 24L13 24L13 23ZM20 25L20 27L21 27L21 25ZM12 27L12 28L13 28L13 27ZM0 0L0 7L7 7L7 0ZM1 1L1 6L6 6L6 1ZM2 2L2 5L5 5L5 2ZM22 0L22 7L29 7L29 0ZM23 1L23 6L28 6L28 1ZM24 2L24 5L27 5L27 2ZM0 22L0 29L7 29L7 22ZM1 23L1 28L6 28L6 23ZM2 24L2 27L5 27L5 24Z" fill="#ff0000"/></g></g></svg>
