<?xml version="1.0" encoding="UTF-8"?>
<svg xmlns="http://www.w3.org/2000/svg" version="1.1" width="100" height="100" viewBox="0 0 100 100"><rect x="0" y="0" width="100" height="100" fill="#ffffff"/><g transform="scale(3.448)"><g transform="translate(0,0)"><path fill-rule="evenodd" d="M10 0L10 2L11 2L11 0ZM12 0L12 1L13 1L13 2L12 2L12 4L13 4L13 2L15 2L15 3L14 3L14 4L15 4L15 3L16 3L16 2L18 2L18 1L19 1L19 0L16 0L16 1L14 1L14 0ZM20 0L20 1L21 1L21 0ZM8 1L8 2L9 2L9 1ZM19 2L19 3L20 3L20 4L18 4L18 3L17 3L17 4L16 4L16 5L15 5L15 6L14 6L14 5L11 5L11 6L10 6L10 4L11 4L11 3L8 3L8 4L9 4L9 5L8 5L8 7L9 7L9 8L6 8L6 9L8 9L8 10L6 10L6 11L7 11L7 12L6 12L6 13L7 13L7 14L6 14L6 15L7 15L7 16L6 16L6 17L0 17L0 21L1 21L1 18L3 18L3 19L2 19L2 20L4 20L4 21L5 21L5 19L8 19L8 20L6 20L6 21L8 21L8 23L10 23L10 26L11 26L11 25L12 25L12 26L13 26L13 27L12 27L12 29L13 29L13 28L14 28L14 29L20 29L20 28L21 28L21 29L23 29L23 28L24 28L24 29L27 29L27 28L28 28L28 26L29 26L29 23L28 23L28 22L29 22L29 20L28 20L28 19L27 19L27 18L25 18L25 17L21 17L21 16L20 16L20 15L23 15L23 16L24 16L24 15L23 15L23 14L22 14L22 13L19 13L19 14L18 14L18 12L17 12L17 11L18 11L18 10L19 10L19 9L20 9L20 10L22 10L22 8L21 8L21 3L20 3L20 2ZM18 5L18 6L17 6L17 7L16 7L16 6L15 6L15 7L14 7L14 6L13 6L13 7L12 7L12 6L11 6L11 7L12 7L12 9L11 9L11 8L10 8L10 9L9 9L9 10L8 10L8 11L9 11L9 12L8 12L8 13L9 13L9 14L7 14L7 15L8 15L8 16L7 16L7 17L6 17L6 18L7 18L7 17L8 17L8 18L9 18L9 17L10 17L10 15L9 15L9 14L13 14L13 15L12 15L12 17L11 17L11 19L10 19L10 20L9 20L9 21L10 21L10 20L11 20L11 22L10 22L10 23L11 23L11 22L13 22L13 23L12 23L12 25L14 25L14 26L16 26L16 27L17 27L17 28L18 28L18 26L19 26L19 25L20 25L20 27L19 27L19 28L20 28L20 27L21 27L21 26L22 26L22 27L23 27L23 25L20 25L20 23L19 23L19 21L20 21L20 20L22 20L22 19L20 19L20 18L19 18L19 17L20 17L20 16L18 16L18 14L16 14L16 16L15 16L15 17L16 17L16 16L17 16L17 18L19 18L19 19L16 19L16 20L15 20L15 22L16 22L16 23L15 23L15 24L14 24L14 19L15 19L15 18L14 18L14 15L15 15L15 14L13 14L13 13L12 13L12 11L13 11L13 12L14 12L14 13L15 13L15 12L16 12L16 11L15 11L15 10L14 10L14 11L13 11L13 10L12 10L12 9L13 9L13 8L15 8L15 7L16 7L16 9L17 9L17 10L18 10L18 9L19 9L19 8L20 8L20 9L21 9L21 8L20 8L20 5ZM9 6L9 7L10 7L10 6ZM18 6L18 7L19 7L19 6ZM0 8L0 11L1 11L1 9L3 9L3 10L4 10L4 12L1 12L1 14L0 14L0 15L1 15L1 16L5 16L5 14L4 14L4 13L5 13L5 10L4 10L4 9L5 9L5 8ZM23 8L23 11L22 11L22 12L23 12L23 13L24 13L24 14L25 14L25 16L26 16L26 15L27 15L27 16L28 16L28 18L29 18L29 16L28 16L28 15L27 15L27 14L29 14L29 11L28 11L28 13L27 13L27 14L25 14L25 13L26 13L26 11L27 11L27 10L25 10L25 9L26 9L26 8L25 8L25 9L24 9L24 8ZM27 8L27 9L28 9L28 10L29 10L29 9L28 9L28 8ZM10 9L10 11L11 11L11 9ZM19 11L19 12L20 12L20 11ZM23 11L23 12L24 12L24 13L25 13L25 11ZM9 12L9 13L11 13L11 12ZM2 13L2 15L3 15L3 13ZM19 14L19 15L20 15L20 14ZM12 17L12 18L13 18L13 19L12 19L12 21L13 21L13 19L14 19L14 18L13 18L13 17ZM24 18L24 19L23 19L23 20L24 20L24 19L25 19L25 18ZM19 19L19 20L16 20L16 21L19 21L19 20L20 20L20 19ZM26 19L26 20L25 20L25 21L27 21L27 22L28 22L28 21L27 21L27 19ZM21 21L21 24L24 24L24 21ZM17 22L17 23L16 23L16 24L17 24L17 25L16 25L16 26L18 26L18 25L19 25L19 23L18 23L18 22ZM22 22L22 23L23 23L23 22ZM25 22L25 23L26 23L26 24L25 24L25 25L24 25L24 26L25 26L25 27L24 27L24 28L25 28L25 27L26 27L26 28L27 28L27 27L26 27L26 24L27 24L27 23L26 23L26 22ZM17 23L17 24L18 24L18 23ZM8 24L8 29L9 29L9 24ZM10 27L10 28L11 28L11 27ZM14 27L14 28L15 28L15 27ZM0 0L0 7L7 7L7 0ZM1 1L1 6L6 6L6 1ZM2 2L2 5L5 5L5 2ZM22 0L22 7L29 7L29 0ZM23 1L23 6L28 6L28 1ZM24 2L24 5L27 5L27 2ZM0 22L0 29L7 29L7 22ZM1 23L1 28L6 28L6 23ZM2 24L2 27L5 27L5 24Z" fill="#ff0000"/></g></g></svg>
