<?xml version="1.0" encoding="UTF-8"?>
<svg xmlns="http://www.w3.org/2000/svg" version="1.1" width="100" height="100" viewBox="0 0 100 100"><rect x="0" y="0" width="100" height="100" fill="#ffffff"/><g transform="scale(3.448)"><g transform="translate(0,0)"><path fill-rule="evenodd" d="M8 0L8 2L10 2L10 4L8 4L8 9L9 9L9 10L8 10L8 11L7 11L7 10L6 10L6 9L7 9L7 8L5 8L5 9L3 9L3 8L0 8L0 9L2 9L2 10L0 10L0 12L1 12L1 13L0 13L0 15L2 15L2 17L1 17L1 18L0 18L0 19L2 19L2 17L3 17L3 15L2 15L2 14L1 14L1 13L3 13L3 14L4 14L4 16L5 16L5 15L7 15L7 14L8 14L8 15L10 15L10 16L9 16L9 18L6 18L6 17L7 17L7 16L6 16L6 17L5 17L5 18L4 18L4 19L3 19L3 20L0 20L0 21L3 21L3 20L4 20L4 21L5 21L5 20L4 20L4 19L8 19L8 20L6 20L6 21L8 21L8 22L9 22L9 23L8 23L8 24L9 24L9 26L8 26L8 29L14 29L14 27L13 27L13 28L11 28L11 27L12 27L12 26L11 26L11 27L10 27L10 24L13 24L13 26L14 26L14 25L16 25L16 26L15 26L15 27L16 27L16 28L15 28L15 29L17 29L17 27L18 27L18 28L20 28L20 29L21 29L21 26L20 26L20 25L23 25L23 26L24 26L24 27L29 27L29 25L28 25L28 24L29 24L29 17L27 17L27 16L26 16L26 15L27 15L27 14L28 14L28 15L29 15L29 12L27 12L27 13L26 13L26 11L27 11L27 10L28 10L28 11L29 11L29 8L27 8L27 10L25 10L25 13L26 13L26 15L25 15L25 14L24 14L24 13L23 13L23 12L24 12L24 11L23 11L23 12L22 12L22 11L21 11L21 12L20 12L20 10L21 10L21 9L22 9L22 10L24 10L24 9L25 9L25 8L19 8L19 9L18 9L18 8L17 8L17 6L18 6L18 7L19 7L19 6L18 6L18 5L19 5L19 3L20 3L20 2L21 2L21 1L20 1L20 0L19 0L19 1L18 1L18 0L17 0L17 1L16 1L16 4L15 4L15 5L16 5L16 4L17 4L17 3L18 3L18 5L17 5L17 6L16 6L16 8L15 8L15 11L14 11L14 8L13 8L13 6L12 6L12 4L11 4L11 3L13 3L13 5L14 5L14 3L15 3L15 2L13 2L13 0L11 0L11 1L9 1L9 0ZM14 0L14 1L15 1L15 0ZM11 1L11 2L12 2L12 1ZM19 1L19 2L20 2L20 1ZM9 5L9 8L10 8L10 6L11 6L11 7L12 7L12 6L11 6L11 5ZM20 5L20 7L21 7L21 5ZM14 6L14 7L15 7L15 6ZM11 8L11 10L9 10L9 11L8 11L8 12L9 12L9 11L10 11L10 15L12 15L12 13L11 13L11 12L14 12L14 15L13 15L13 16L10 16L10 17L11 17L11 18L10 18L10 19L11 19L11 20L9 20L9 22L10 22L10 21L11 21L11 23L12 23L12 21L11 21L11 20L13 20L13 21L14 21L14 20L15 20L15 19L13 19L13 18L14 18L14 17L15 17L15 14L16 14L16 15L17 15L17 16L16 16L16 23L15 23L15 24L16 24L16 25L19 25L19 24L18 24L18 23L20 23L20 22L19 22L19 20L20 20L20 19L21 19L21 20L22 20L22 19L23 19L23 18L22 18L22 19L21 19L21 18L20 18L20 17L22 17L22 16L23 16L23 17L24 17L24 20L25 20L25 19L26 19L26 20L27 20L27 21L28 21L28 18L27 18L27 17L24 17L24 16L25 16L25 15L24 15L24 16L23 16L23 13L22 13L22 12L21 12L21 15L22 15L22 16L20 16L20 15L19 15L19 12L18 12L18 11L17 11L17 10L16 10L16 11L15 11L15 12L14 12L14 11L13 11L13 8ZM19 9L19 10L20 10L20 9ZM2 10L2 12L3 12L3 13L4 13L4 14L5 14L5 13L6 13L6 14L7 14L7 13L6 13L6 12L7 12L7 11L6 11L6 12L5 12L5 13L4 13L4 10ZM11 10L11 11L12 11L12 10ZM8 13L8 14L9 14L9 13ZM16 13L16 14L18 14L18 13ZM18 15L18 16L17 16L17 19L18 19L18 16L19 16L19 17L20 17L20 16L19 16L19 15ZM11 18L11 19L12 19L12 18ZM19 18L19 19L20 19L20 18ZM17 21L17 23L18 23L18 21ZM21 21L21 24L24 24L24 21ZM22 22L22 23L23 23L23 22ZM26 22L26 24L25 24L25 26L28 26L28 25L27 25L27 24L28 24L28 23L27 23L27 22ZM13 23L13 24L14 24L14 23ZM9 27L9 28L10 28L10 27ZM22 28L22 29L25 29L25 28ZM28 28L28 29L29 29L29 28ZM0 0L0 7L7 7L7 0ZM1 1L1 6L6 6L6 1ZM2 2L2 5L5 5L5 2ZM22 0L22 7L29 7L29 0ZM23 1L23 6L28 6L28 1ZM24 2L24 5L27 5L27 2ZM0 22L0 29L7 29L7 22ZM1 23L1 28L6 28L6 23ZM2 24L2 27L5 27L5 24Z" fill="#ff0000"/></g></g></svg>
