<?xml version="1.0" encoding="UTF-8"?>
<svg xmlns="http://www.w3.org/2000/svg" version="1.1" width="100" height="100" viewBox="0 0 100 100"><rect x="0" y="0" width="100" height="100" fill="#ffffff"/><g transform="scale(3.448)"><g transform="translate(0,0)"><path fill-rule="evenodd" d="M8 0L8 1L9 1L9 2L8 2L8 5L9 5L9 4L11 4L11 5L10 5L10 10L9 10L9 13L8 13L8 10L6 10L6 11L7 11L7 12L5 12L5 10L4 10L4 12L3 12L3 9L4 9L4 8L0 8L0 9L1 9L1 10L2 10L2 11L1 11L1 12L3 12L3 13L2 13L2 14L1 14L1 15L3 15L3 16L0 16L0 17L1 17L1 18L0 18L0 19L1 19L1 18L2 18L2 20L1 20L1 21L2 21L2 20L3 20L3 21L8 21L8 22L9 22L9 24L10 24L10 26L9 26L9 25L8 25L8 29L12 29L12 28L14 28L14 27L15 27L15 29L16 29L16 27L15 27L15 26L16 26L16 25L18 25L18 26L19 26L19 27L18 27L18 29L22 29L22 28L23 28L23 29L25 29L25 28L26 28L26 29L28 29L28 27L29 27L29 24L26 24L26 23L27 23L27 21L26 21L26 20L28 20L28 22L29 22L29 20L28 20L28 19L27 19L27 18L28 18L28 17L29 17L29 16L28 16L28 15L29 15L29 13L28 13L28 11L27 11L27 10L26 10L26 9L27 9L27 8L24 8L24 9L22 9L22 8L21 8L21 9L20 9L20 7L21 7L21 3L20 3L20 2L18 2L18 1L17 1L17 0L16 0L16 1L17 1L17 2L16 2L16 3L15 3L15 2L14 2L14 1L13 1L13 0L12 0L12 1L11 1L11 0L10 0L10 1L9 1L9 0ZM19 0L19 1L21 1L21 0ZM11 2L11 4L12 4L12 3L13 3L13 5L12 5L12 6L11 6L11 8L12 8L12 6L13 6L13 10L14 10L14 9L15 9L15 12L16 12L16 11L17 11L17 12L19 12L19 13L20 13L20 14L21 14L21 15L22 15L22 14L24 14L24 15L23 15L23 16L18 16L18 15L19 15L19 14L17 14L17 13L16 13L16 14L15 14L15 15L14 15L14 14L12 14L12 16L10 16L10 15L11 15L11 13L12 13L12 12L13 12L13 11L11 11L11 13L9 13L9 14L8 14L8 13L6 13L6 14L7 14L7 15L5 15L5 14L4 14L4 15L5 15L5 16L4 16L4 17L2 17L2 18L4 18L4 20L5 20L5 18L7 18L7 19L6 19L6 20L8 20L8 21L9 21L9 22L10 22L10 21L9 21L9 20L11 20L11 23L13 23L13 22L14 22L14 23L15 23L15 24L12 24L12 26L10 26L10 28L12 28L12 26L13 26L13 27L14 27L14 26L13 26L13 25L15 25L15 24L18 24L18 25L20 25L20 20L21 20L21 19L23 19L23 16L24 16L24 18L25 18L25 17L26 17L26 16L27 16L27 13L25 13L25 11L24 11L24 10L23 10L23 11L24 11L24 12L22 12L22 9L21 9L21 10L20 10L20 9L18 9L18 8L17 8L17 7L18 7L18 6L19 6L19 7L20 7L20 6L19 6L19 3L18 3L18 2L17 2L17 4L18 4L18 6L17 6L17 5L16 5L16 4L15 4L15 7L16 7L16 8L14 8L14 3L13 3L13 2ZM8 6L8 7L9 7L9 6ZM16 6L16 7L17 7L17 6ZM6 8L6 9L7 9L7 8ZM8 8L8 9L9 9L9 8ZM28 8L28 10L29 10L29 8ZM11 9L11 10L12 10L12 9ZM16 9L16 10L17 10L17 11L18 11L18 9ZM26 11L26 12L27 12L27 11ZM4 12L4 13L5 13L5 12ZM9 14L9 15L10 15L10 14ZM25 14L25 15L24 15L24 16L26 16L26 14ZM15 15L15 16L16 16L16 17L14 17L14 16L12 16L12 17L13 17L13 18L15 18L15 19L14 19L14 20L13 20L13 21L15 21L15 19L16 19L16 17L17 17L17 18L18 18L18 19L17 19L17 20L18 20L18 21L19 21L19 20L18 20L18 19L19 19L19 18L22 18L22 17L17 17L17 16L16 16L16 15ZM6 16L6 17L7 17L7 16ZM9 16L9 18L8 18L8 19L9 19L9 18L11 18L11 17L10 17L10 16ZM11 19L11 20L12 20L12 19ZM16 21L16 22L17 22L17 21ZM21 21L21 24L24 24L24 21ZM25 21L25 22L26 22L26 21ZM18 22L18 24L19 24L19 22ZM22 22L22 23L23 23L23 22ZM21 25L21 26L22 26L22 27L23 27L23 25ZM25 25L25 26L24 26L24 27L25 27L25 26L26 26L26 28L27 28L27 27L28 27L28 25ZM19 27L19 28L21 28L21 27ZM0 0L0 7L7 7L7 0ZM1 1L1 6L6 6L6 1ZM2 2L2 5L5 5L5 2ZM22 0L22 7L29 7L29 0ZM23 1L23 6L28 6L28 1ZM24 2L24 5L27 5L27 2ZM0 22L0 29L7 29L7 22ZM1 23L1 28L6 28L6 23ZM2 24L2 27L5 27L5 24Z" fill="#ff0000"/></g></g></svg>
