<?xml version="1.0" encoding="UTF-8"?>
<svg xmlns="http://www.w3.org/2000/svg" version="1.1" width="100" height="100" viewBox="0 0 100 100"><rect x="0" y="0" width="100" height="100" fill="#ffffff"/><g transform="scale(3.448)"><g transform="translate(0,0)"><path fill-rule="evenodd" d="M10 0L10 2L11 2L11 0ZM12 0L12 1L13 1L13 2L12 2L12 4L13 4L13 5L11 5L11 6L10 6L10 4L11 4L11 3L8 3L8 4L9 4L9 5L8 5L8 7L9 7L9 8L6 8L6 9L8 9L8 10L9 10L9 9L10 9L10 11L11 11L11 9L12 9L12 10L13 10L13 11L12 11L12 13L13 13L13 14L11 14L11 16L10 16L10 13L11 13L11 12L6 12L6 13L7 13L7 14L5 14L5 13L3 13L3 11L5 11L5 8L0 8L0 9L2 9L2 10L1 10L1 11L0 11L0 12L1 12L1 11L2 11L2 13L1 13L1 14L3 14L3 16L1 16L1 15L0 15L0 21L1 21L1 17L3 17L3 18L2 18L2 19L3 19L3 21L5 21L5 20L6 20L6 21L8 21L8 23L10 23L10 24L8 24L8 29L9 29L9 28L10 28L10 29L11 29L11 26L10 26L10 25L12 25L12 26L13 26L13 27L12 27L12 29L13 29L13 28L14 28L14 29L16 29L16 28L14 28L14 27L17 27L17 26L18 26L18 28L19 28L19 29L20 29L20 28L21 28L21 29L22 29L22 28L23 28L23 29L26 29L26 27L27 27L27 28L28 28L28 26L29 26L29 23L28 23L28 22L29 22L29 21L28 21L28 22L27 22L27 21L26 21L26 22L25 22L25 20L26 20L26 18L27 18L27 17L24 17L24 16L26 16L26 14L25 14L25 12L26 12L26 11L27 11L27 12L28 12L28 13L27 13L27 14L29 14L29 11L27 11L27 10L28 10L28 8L27 8L27 9L26 9L26 8L25 8L25 9L24 9L24 8L23 8L23 9L22 9L22 8L21 8L21 6L20 6L20 11L23 11L23 12L24 12L24 13L22 13L22 12L21 12L21 13L20 13L20 12L19 12L19 10L17 10L17 9L18 9L18 8L19 8L19 5L20 5L20 4L21 4L21 3L20 3L20 2L21 2L21 0L20 0L20 2L19 2L19 0L14 0L14 1L13 1L13 0ZM8 1L8 2L9 2L9 1ZM14 1L14 2L13 2L13 3L15 3L15 1ZM16 1L16 3L17 3L17 4L20 4L20 3L18 3L18 2L17 2L17 1ZM14 4L14 5L13 5L13 7L12 7L12 6L11 6L11 7L12 7L12 9L13 9L13 10L14 10L14 11L13 11L13 12L15 12L15 13L14 13L14 14L13 14L13 15L12 15L12 17L10 17L10 16L9 16L9 14L7 14L7 15L5 15L5 14L4 14L4 15L5 15L5 17L4 17L4 16L3 16L3 17L4 17L4 20L5 20L5 17L6 17L6 18L7 18L7 19L6 19L6 20L7 20L7 19L8 19L8 21L9 21L9 22L10 22L10 23L11 23L11 22L16 22L16 24L14 24L14 23L12 23L12 25L14 25L14 26L17 26L17 25L18 25L18 26L20 26L20 27L19 27L19 28L20 28L20 27L21 27L21 26L22 26L22 27L23 27L23 25L21 25L21 26L20 26L20 24L19 24L19 23L18 23L18 22L20 22L20 21L19 21L19 20L18 20L18 18L17 18L17 19L15 19L15 18L16 18L16 17L19 17L19 19L21 19L21 20L25 20L25 18L22 18L22 17L23 17L23 16L24 16L24 14L22 14L22 13L21 13L21 14L22 14L22 15L23 15L23 16L22 16L22 17L21 17L21 15L20 15L20 14L19 14L19 15L17 15L17 14L18 14L18 13L19 13L19 12L18 12L18 11L16 11L16 12L15 12L15 10L16 10L16 9L17 9L17 8L18 8L18 5L16 5L16 6L15 6L15 4ZM9 6L9 7L10 7L10 6ZM14 6L14 8L13 8L13 9L14 9L14 10L15 10L15 6ZM16 6L16 7L17 7L17 6ZM10 8L10 9L11 9L11 8ZM3 9L3 10L4 10L4 9ZM21 9L21 10L22 10L22 9ZM23 9L23 11L24 11L24 12L25 12L25 10L24 10L24 9ZM6 10L6 11L7 11L7 10ZM16 13L16 14L14 14L14 16L13 16L13 17L12 17L12 18L13 18L13 17L14 17L14 18L15 18L15 17L14 17L14 16L16 16L16 14L17 14L17 13ZM27 15L27 16L28 16L28 18L29 18L29 16L28 16L28 15ZM6 16L6 17L8 17L8 16ZM19 16L19 17L20 17L20 18L21 18L21 17L20 17L20 16ZM9 17L9 18L8 18L8 19L9 19L9 21L11 21L11 18L10 18L10 17ZM9 18L9 19L10 19L10 18ZM12 19L12 21L13 21L13 19ZM28 19L28 20L29 20L29 19ZM14 20L14 21L17 21L17 22L18 22L18 20ZM21 21L21 24L24 24L24 21ZM22 22L22 23L23 23L23 22ZM26 23L26 25L24 25L24 26L27 26L27 23ZM16 24L16 25L17 25L17 24ZM24 27L24 28L25 28L25 27ZM0 0L0 7L7 7L7 0ZM1 1L1 6L6 6L6 1ZM2 2L2 5L5 5L5 2ZM22 0L22 7L29 7L29 0ZM23 1L23 6L28 6L28 1ZM24 2L24 5L27 5L27 2ZM0 22L0 29L7 29L7 22ZM1 23L1 28L6 28L6 23ZM2 24L2 27L5 27L5 24Z" fill="#ff0000"/></g></g></svg>
